<svg preserveAspectRatio="none" width="100%" height="100%" overflow="visible" style="display: block;" viewBox="0 0 30 30" fill="none" xmlns="http://www.w3.org/2000/svg">
<g id="WhatsappLogo">
<path id="Vector" d="M21.982 16.9734L18.232 15.0984C18.0844 15.0249 17.92 14.9916 17.7554 15.0019C17.5908 15.0121 17.4318 15.0657 17.2945 15.157L15.573 16.3055C14.7828 15.871 14.1325 15.2207 13.698 14.4305L14.8465 12.709C14.9378 12.5717 14.9914 12.4127 15.0017 12.2481C15.012 12.0835 14.9786 11.9191 14.9051 11.7715L13.0301 8.02148C12.9524 7.86454 12.8322 7.7325 12.6833 7.64033C12.5344 7.54816 12.3626 7.49955 12.1875 7.5C10.9443 7.5 9.75201 7.99386 8.87294 8.87294C7.99386 9.75201 7.5 10.9443 7.5 12.1875C7.5031 14.9216 8.59059 17.5428 10.5239 19.4761C12.4572 21.4094 15.0784 22.4969 17.8125 22.5C18.4281 22.5 19.0376 22.3788 19.6063 22.1432C20.175 21.9076 20.6918 21.5623 21.1271 21.1271C21.5623 20.6918 21.9076 20.175 22.1432 19.6063C22.3788 19.0376 22.5 18.4281 22.5 17.8125C22.5001 17.6383 22.4517 17.4676 22.3602 17.3194C22.2688 17.1712 22.1378 17.0514 21.982 16.9734ZM17.8125 20.625C15.5755 20.6225 13.4308 19.7328 11.849 18.151C10.2672 16.5692 9.37748 14.4245 9.375 12.1875C9.37482 11.5372 9.59996 10.907 10.0121 10.4041C10.4243 9.90112 10.9979 9.55652 11.6355 9.42891L12.9809 12.1242L11.8359 13.8281C11.7504 13.9565 11.6978 14.1039 11.6829 14.2574C11.668 14.411 11.6912 14.5658 11.7504 14.7082C12.4212 16.3024 13.6894 17.5706 15.2836 18.2414C15.4264 18.3033 15.5824 18.3286 15.7375 18.3151C15.8926 18.3016 16.0419 18.2497 16.1719 18.1641L17.884 17.0227L20.5793 18.368C20.4507 19.0063 20.1046 19.5803 19.6 19.9919C19.0954 20.4035 18.4637 20.6272 17.8125 20.625ZM15 2.8125C12.8959 2.81204 10.8274 3.35635 8.99608 4.39246C7.16471 5.42856 5.63279 6.92115 4.54942 8.72496C3.46605 10.5288 2.86814 12.5823 2.81389 14.6858C2.75964 16.7892 3.2509 18.8709 4.23984 20.7281L2.90977 24.7184C2.79959 25.0487 2.7836 25.4033 2.86359 25.7422C2.94358 26.0811 3.11638 26.3911 3.36264 26.6374C3.60889 26.8836 3.91886 27.0564 4.25781 27.1364C4.59675 27.2164 4.95127 27.2004 5.28164 27.0902L9.27188 25.7602C10.9064 26.6295 12.7174 27.1151 14.5676 27.18C16.4178 27.2449 18.2584 26.8875 19.9498 26.1348C21.6413 25.3822 23.139 24.2541 24.3293 22.8362C25.5196 21.4183 26.3713 19.7478 26.8197 17.9516C27.268 16.1554 27.3013 14.2807 26.917 12.4697C26.5326 10.6588 25.7407 8.95914 24.6014 7.4999C23.4622 6.04066 22.0054 4.86014 20.3418 4.04795C18.6781 3.23577 16.8513 2.81326 15 2.8125ZM15 25.3125C13.1871 25.3137 11.406 24.8363 9.83672 23.9285C9.72182 23.8619 9.59408 23.8204 9.46195 23.8069C9.32983 23.7934 9.19633 23.8081 9.07031 23.85L4.6875 25.3125L6.14883 20.9297C6.19095 20.8037 6.20584 20.6703 6.19251 20.5382C6.17917 20.406 6.13792 20.2783 6.07148 20.1633C4.93473 18.1979 4.47833 15.9124 4.77308 13.6612C5.06783 11.41 6.09726 9.319 7.70167 7.71257C9.30607 6.10613 11.3958 5.07407 13.6466 4.77647C15.8974 4.47888 18.1835 4.93239 20.1503 6.06666C22.1171 7.20093 23.6546 8.95255 24.5242 11.0498C25.3939 13.147 25.5472 15.4726 24.9603 17.6659C24.3733 19.8591 23.079 21.7974 21.2781 23.1799C19.4772 24.5625 17.2704 25.3121 15 25.3125Z" fill="url(#paint0_linear_0_473)"/>
</g>
<defs>
<linearGradient id="paint0_linear_0_473" x1="14.9962" y1="2.8125" x2="14.9962" y2="27.1875" gradientUnits="userSpaceOnUse">
<stop stop-color="#F869C6"/>
<stop offset="1" stop-color="#E26767"/>
</linearGradient>
</defs>
</svg>
