<svg preserveAspectRatio="none" width="100%" height="100%" overflow="visible" style="display: block;" viewBox="0 0 30 30" fill="none" xmlns="http://www.w3.org/2000/svg">
<g id="Envelope">
<path id="Vector" d="M26.25 5.625H3.75C3.50136 5.625 3.2629 5.72377 3.08709 5.89959C2.91127 6.0754 2.8125 6.31386 2.8125 6.5625V22.5C2.8125 22.9973 3.01004 23.4742 3.36167 23.8258C3.71331 24.1775 4.19022 24.375 4.6875 24.375H25.3125C25.8098 24.375 26.2867 24.1775 26.6383 23.8258C26.99 23.4742 27.1875 22.9973 27.1875 22.5V6.5625C27.1875 6.31386 27.0887 6.0754 26.9129 5.89959C26.7371 5.72377 26.4986 5.625 26.25 5.625ZM15 15.6035L6.16055 7.5H23.8395L15 15.6035ZM11.5676 15L4.6875 21.3059V8.69414L11.5676 15ZM12.9551 16.2715L14.3613 17.5664C14.5343 17.7252 14.7605 17.8133 14.9953 17.8133C15.2301 17.8133 15.4563 17.7252 15.6293 17.5664L17.0355 16.2715L23.8324 22.5H6.16055L12.9551 16.2715ZM18.4324 15L25.3125 8.69297V21.307L18.4324 15Z" fill="url(#paint0_linear_0_471)"/>
</g>
<defs>
<linearGradient id="paint0_linear_0_471" x1="15" y1="5.625" x2="15" y2="24.375" gradientUnits="userSpaceOnUse">
<stop stop-color="#F869C6"/>
<stop offset="1" stop-color="#E26767"/>
</linearGradient>
</defs>
</svg>
