<svg preserveAspectRatio="none" width="100%" height="100%" overflow="visible" style="display: block;" viewBox="0 0 30 30" fill="none" xmlns="http://www.w3.org/2000/svg">
<g id="Check">
<path id="Vector" d="M26.9133 9.10078L11.9133 24.1008C11.8262 24.1879 11.7228 24.2571 11.609 24.3043C11.4952 24.3515 11.3732 24.3757 11.25 24.3757C11.1268 24.3757 11.0048 24.3515 10.891 24.3043C10.7772 24.2571 10.6738 24.1879 10.5867 24.1008L4.02422 17.5383C3.84831 17.3624 3.74948 17.1238 3.74948 16.875C3.74948 16.6262 3.84831 16.3876 4.02422 16.2117C4.20013 16.0358 4.43872 15.937 4.6875 15.937C4.93628 15.937 5.17487 16.0358 5.35078 16.2117L11.25 22.1121L25.5867 7.77422C25.7626 7.59831 26.0012 7.49948 26.25 7.49948C26.4988 7.49948 26.7374 7.59831 26.9133 7.77422C27.0892 7.95013 27.188 8.18872 27.188 8.4375C27.188 8.68628 27.0892 8.92487 26.9133 9.10078Z" fill="var(--fill-0, #4B33FF)"/>
</g>
</svg>
