<svg preserveAspectRatio="none" width="100%" height="100%" overflow="visible" style="display: block;" viewBox="0 0 40 40" fill="none" xmlns="http://www.w3.org/2000/svg">
<g id="Rocket">
<path id="Vector" d="M23.75 35C23.75 35.3315 23.6183 35.6495 23.3839 35.8839C23.1495 36.1183 22.8315 36.25 22.5 36.25H17.5C17.1685 36.25 16.8505 36.1183 16.6161 35.8839C16.3817 35.6495 16.25 35.3315 16.25 35C16.25 34.6685 16.3817 34.3505 16.6161 34.1161C16.8505 33.8817 17.1685 33.75 17.5 33.75H22.5C22.8315 33.75 23.1495 33.8817 23.3839 34.1161C23.6183 34.3505 23.75 34.6685 23.75 35ZM20 17.5C20.3708 17.5 20.7334 17.39 21.0417 17.184C21.35 16.978 21.5904 16.6851 21.7323 16.3425C21.8742 15.9999 21.9113 15.6229 21.839 15.2592C21.7666 14.8955 21.5881 14.5614 21.3258 14.2992C21.0636 14.037 20.7295 13.8584 20.3658 13.786C20.0021 13.7137 19.6251 13.7508 19.2825 13.8927C18.9399 14.0346 18.647 14.275 18.441 14.5833C18.235 14.8916 18.125 15.2542 18.125 15.625C18.125 16.1223 18.3225 16.5992 18.6742 16.9508C19.0258 17.3025 19.5027 17.5 20 17.5ZM34.9406 24.3484L33.0094 33.0406C32.9178 33.4534 32.7229 33.8362 32.4432 34.1532C32.1634 34.4702 31.8077 34.7111 31.4096 34.8533C31.0114 34.9955 30.5836 35.0343 30.1663 34.9663C29.749 34.8982 29.3558 34.7254 29.0234 34.4641L24.7672 31.25H15.2359L10.9766 34.4641C10.6442 34.7254 10.251 34.8982 9.83368 34.9663C9.41638 35.0343 8.98863 34.9955 8.59044 34.8533C8.19225 34.7111 7.83664 34.4702 7.55685 34.1532C7.27706 33.8362 7.08225 33.4534 6.99063 33.0406L5.05938 24.3484C4.97746 23.9754 4.98159 23.5886 5.07148 23.2175C5.16136 22.8463 5.33463 22.5005 5.57813 22.2062L10.0406 16.8531C10.1904 14.8858 10.642 12.9533 11.3797 11.1234C13.3953 6.07031 17.0047 2.9 18.4688 1.77187C18.907 1.43232 19.4456 1.24805 20 1.24805C20.5544 1.24805 21.093 1.43232 21.5313 1.77187C22.9906 2.9 26.6047 6.07031 28.6203 11.1234C29.358 12.9533 29.8096 14.8858 29.9594 16.8531L34.4219 22.2062C34.6654 22.5005 34.8386 22.8463 34.9285 23.2175C35.0184 23.5886 35.0225 23.9754 34.9406 24.3484ZM15.5359 28.75H24.4641C27.7641 22.8844 28.3813 17.2688 26.2984 12.05C24.4609 7.44375 21.0141 4.53125 20 3.75C18.9828 4.53125 15.5359 7.44375 13.6984 12.05C11.6188 17.2688 12.2359 22.8844 15.5359 28.75ZM13.1922 29.6641C11.5099 26.6068 10.4891 23.6021 10.1297 20.65L7.5 23.8062L9.43125 32.5L9.45938 32.4797L13.1922 29.6641ZM32.5 23.8062L29.8703 20.65C29.5141 23.5958 28.4953 26.6005 26.8141 29.6641L30.5406 32.4766L30.5688 32.4969L32.5 23.8062Z" fill="var(--fill-0, #FF8A00)"/>
</g>
</svg>
