<svg preserveAspectRatio="none" width="100%" height="100%" overflow="visible" style="display: block;" viewBox="0 0 40 40" fill="none" xmlns="http://www.w3.org/2000/svg">
<g id="ChatCircle">
<path id="Vector" d="M20 3.75C17.1945 3.74939 14.4366 4.47514 11.9948 5.85661C9.55295 7.23808 7.51039 9.22821 6.06589 11.6333C4.6214 14.0384 3.82419 16.7764 3.75186 19.581C3.67952 22.3856 4.33453 25.1612 5.65313 27.6375L3.87969 32.9578C3.73279 33.3983 3.71147 33.871 3.81812 34.3229C3.92477 34.7749 4.15518 35.1881 4.48352 35.5165C4.81186 35.8448 5.22515 36.0752 5.67707 36.1819C6.129 36.2885 6.6017 36.2672 7.04219 36.1203L12.3625 34.3469C14.5418 35.506 16.9566 36.1534 19.4235 36.24C21.8904 36.3266 24.3446 35.85 26.5998 34.8465C28.855 33.8429 30.852 32.3388 32.4391 30.4483C34.0262 28.5577 35.1618 26.3304 35.7596 23.9355C36.3574 21.5406 36.4017 19.0409 35.8893 16.6263C35.3768 14.2117 34.321 11.9455 32.8019 9.99987C31.2829 8.05421 29.3405 6.48019 27.1224 5.39727C24.9042 4.31436 22.4684 3.75101 20 3.75ZM20 33.75C17.5828 33.7516 15.208 33.1151 13.1156 31.9047C12.9624 31.8158 12.7921 31.7606 12.6159 31.7425C12.4398 31.7245 12.2618 31.7441 12.0938 31.8L6.25 33.75L8.19844 27.9063C8.2546 27.7383 8.27445 27.5604 8.25668 27.3842C8.2389 27.2081 8.1839 27.0377 8.09531 26.8844C6.57964 24.2639 5.97111 21.2165 6.36411 18.2149C6.75711 15.2133 8.12968 12.4253 10.2689 10.2834C12.4081 8.14151 15.1944 6.76542 18.1955 6.36863C21.1966 5.97184 24.2447 6.57652 26.8671 8.08888C29.4894 9.60124 31.5394 11.9367 32.699 14.733C33.8586 17.5294 34.0629 20.6302 33.2804 23.5545C32.4978 26.4788 30.7721 29.0632 28.3709 30.9066C25.9697 32.75 23.0272 33.7495 20 33.75Z" fill="var(--fill-0, #FF8A00)"/>
</g>
</svg>
