<svg preserveAspectRatio="none" width="100%" height="100%" overflow="visible" style="display: block;" viewBox="0 0 70 70" fill="none" xmlns="http://www.w3.org/2000/svg">
<g id="CaretCircleLeft">
<path id="Vector" d="M35 6.5625C29.3756 6.5625 23.8775 8.23033 19.201 11.3551C14.5244 14.4798 10.8795 18.9212 8.72718 24.1174C6.57481 29.3137 6.01165 35.0315 7.10892 40.5479C8.20619 46.0642 10.9146 51.1313 14.8917 55.1083C18.8687 59.0854 23.9358 61.7938 29.4521 62.8911C34.9685 63.9883 40.6863 63.4252 45.8826 61.2728C51.0788 59.1205 55.5202 55.4755 58.6449 50.799C61.7697 46.1225 63.4375 40.6244 63.4375 35C63.4295 27.4603 60.4309 20.2318 55.0996 14.9004C49.7682 9.5691 42.5397 6.57046 35 6.5625ZM40.9227 44.3898C41.1259 44.5931 41.2871 44.8344 41.3971 45.0999C41.5071 45.3655 41.5637 45.6501 41.5637 45.9375C41.5637 46.2249 41.5071 46.5095 41.3971 46.7751C41.2871 47.0406 41.1259 47.2819 40.9227 47.4852C40.7194 47.6884 40.4781 47.8496 40.2126 47.9596C39.947 48.0696 39.6624 48.1262 39.375 48.1262C39.0876 48.1262 38.803 48.0696 38.5374 47.9596C38.2719 47.8496 38.0306 47.6884 37.8273 47.4852L26.8898 36.5477C26.6865 36.3445 26.5251 36.1032 26.415 35.8377C26.3049 35.5721 26.2483 35.2875 26.2483 35C26.2483 34.7125 26.3049 34.4279 26.415 34.1623C26.5251 33.8968 26.6865 33.6555 26.8898 33.4523L37.8273 22.5148C38.0306 22.3116 38.2719 22.1504 38.5374 22.0404C38.803 21.9304 39.0876 21.8738 39.375 21.8738C39.6624 21.8738 39.947 21.9304 40.2126 22.0404C40.4781 22.1504 40.7194 22.3116 40.9227 22.5148C41.1259 22.7181 41.2871 22.9594 41.3971 23.2249C41.5071 23.4905 41.5637 23.7751 41.5637 24.0625C41.5637 24.3499 41.5071 24.6345 41.3971 24.9001C41.2871 25.1656 41.1259 25.4069 40.9227 25.6102L31.5301 35L40.9227 44.3898Z" fill="url(#paint0_linear_0_167)"/>
</g>
<defs>
<linearGradient id="paint0_linear_0_167" x1="35" y1="6.5625" x2="35" y2="63.4375" gradientUnits="userSpaceOnUse">
<stop stop-color="#F869C6"/>
<stop offset="1" stop-color="#E26767"/>
</linearGradient>
</defs>
</svg>
